<svg width="17" height="17" viewBox="0 0 17 17" fill="none" xmlns="http://www.w3.org/2000/svg">
<path d="M8.49984 2.83335C5.37022 2.83335 2.83317 5.37041 2.83317 8.50002C2.83317 11.6296 5.37022 14.1667 8.49984 14.1667C11.6295 14.1667 14.1665 11.6296 14.1665 8.50002C14.1665 5.37041 11.6295 2.83335 8.49984 2.83335ZM1.4165 8.50002C1.4165 4.588 4.58782 1.41669 8.49984 1.41669C12.4119 1.41669 15.5832 4.588 15.5832 8.50002C15.5832 12.412 12.4119 15.5834 8.49984 15.5834C4.58782 15.5834 1.4165 12.412 1.4165 8.50002ZM8.49984 4.25002C8.89104 4.25002 9.20817 4.56715 9.20817 4.95835V8.20662L11.1257 10.1242C11.4023 10.4008 11.4023 10.8493 11.1257 11.1259C10.8491 11.4025 10.4006 11.4025 10.124 11.1259L7.99897 9.00089C7.86613 8.86805 7.7915 8.68788 7.7915 8.50002V4.95835C7.7915 4.56715 8.10864 4.25002 8.49984 4.25002Z" fill="#BDBDBD"/>
</svg>
