<svg width="26" height="26" viewBox="0 0 26 26" fill="none" xmlns="http://www.w3.org/2000/svg">
<path d="M5.7338 5.73397C6.15687 5.3109 6.8428 5.3109 7.26587 5.73397L12.9998 11.4679L18.7338 5.73397C19.1569 5.3109 19.8428 5.3109 20.2659 5.73397C20.6889 6.15704 20.6889 6.84297 20.2659 7.26604L14.5319 13L20.2659 18.734C20.6889 19.157 20.6889 19.843 20.2659 20.266C19.8428 20.6891 19.1569 20.6891 18.7338 20.266L12.9998 14.5321L7.26587 20.266C6.8428 20.6891 6.15687 20.6891 5.7338 20.266C5.31074 19.843 5.31074 19.157 5.7338 18.734L11.4678 13L5.7338 7.26604C5.31074 6.84297 5.31074 6.15704 5.7338 5.73397Z" fill="white"/>
</svg>
