<svg width="21" height="21" viewBox="0 0 21 21" fill="none" xmlns="http://www.w3.org/2000/svg">
<path d="M13.125 10.5C13.125 11.9497 11.9497 13.125 10.5 13.125C9.05025 13.125 7.875 11.9497 7.875 10.5C7.875 9.05025 9.05025 7.875 10.5 7.875C11.9497 7.875 13.125 9.05025 13.125 10.5Z" fill="#BDBDBD"/>
<path d="M19.1576 10.1087C17.2692 6.3318 13.9152 4.375 10.5 4.375C7.08477 4.375 3.73082 6.3318 1.84238 10.1087C1.71921 10.355 1.71921 10.645 1.84238 10.8913C3.73082 14.6682 7.08477 16.625 10.5 16.625C13.9152 16.625 17.2692 14.6682 19.1576 10.8913C19.2808 10.645 19.2808 10.355 19.1576 10.1087ZM10.5 14.875C7.90231 14.875 5.2483 13.4568 3.61345 10.5C5.2483 7.54318 7.90231 6.125 10.5 6.125C13.0977 6.125 15.7517 7.54318 17.3866 10.5C15.7517 13.4568 13.0977 14.875 10.5 14.875Z" fill="#BDBDBD"/>
</svg>
